<svg xmlns="http://www.w3.org/2000/svg" width="158" height="26" viewBox="0 0 158 26" fill="none">
<path d="M0.675676 12.2117C1.23874 9.34008 3.77253 7.31305 7.37613 7.31305C11.5428 7.31305 14.7523 9.05855 14.7523 14.6892V25.1622H11.2049L10.7545 22.9099C9.51578 24.4302 7.88289 25.4437 5.3491 25.4437C2.36487 25.4437 0 23.5856 0 20.0946C0 16.6036 3.09685 14.3514 7.48875 14.3514H10.4167V13.563C10.4167 11.5923 8.95271 10.973 7.31984 10.973C6.0811 10.973 4.84235 11.3671 4.27929 13L0.675676 12.2117ZM6.36262 21.7838C8.33335 21.7838 10.4167 20.4324 10.4167 18.1802V17.8424H7.54506C5.68695 17.786 4.56081 18.518 4.56081 20.0383C4.56081 20.8828 5.18019 21.7838 6.36262 21.7838Z" fill="#F5497D"/>
<path d="M85.0227 12.2117C85.5857 9.34008 88.1195 7.31305 91.7231 7.31305C95.8898 7.31305 99.0992 9.05855 99.0992 14.6892V25.1622H95.552L95.1015 22.9099C93.8627 24.4302 92.2299 25.4437 89.6961 25.4437C86.7118 25.4437 84.347 23.5856 84.347 20.0946C84.347 16.6036 87.4438 14.3514 91.8357 14.3514H94.7636V13.563C94.7636 11.5923 93.2997 10.973 91.6668 10.973C90.4281 10.973 89.1893 11.3671 88.6262 13L85.0227 12.2117ZM90.7097 21.7838C92.6803 21.7838 94.7636 20.4324 94.7636 18.1802V17.8424H91.8921C90.0339 17.8424 88.9078 18.518 88.9078 20.0946C88.9078 20.8828 89.5271 21.7838 90.7097 21.7838Z" fill="#F5497D"/>
<path d="M103.04 25.2185V7.59459H107.376V10.4662C108.614 8.38288 110.585 7.31305 112.556 7.31305C113.344 7.31305 113.963 7.42567 114.696 7.65089L113.907 11.6486C113.401 11.3108 112.837 11.1419 112.105 11.1419C109.572 11.1419 107.376 13.2252 107.376 18.9122V25.1622L103.04 25.2185Z" fill="#F5497D"/>
<path d="M123.93 7.31307C125.732 7.31307 127.421 8.21398 128.209 9.17118V0.5H132.545V25.2185H128.209V23.4167C127.703 24.3176 126.125 25.5 123.93 25.5C118.637 25.5 115.934 21.8401 115.934 16.4347C115.934 11.0293 118.637 7.31307 123.93 7.31307ZM124.549 21.7838C126.801 21.7838 128.603 19.9257 128.603 16.4347C128.603 12.9437 126.801 11.0856 124.549 11.0856C122.297 11.0856 120.495 12.9437 120.495 16.4347C120.495 19.9257 122.297 21.7838 124.549 21.7838Z" fill="#F5497D"/>
<path d="M148.198 10.1284L145.608 12.4932C144.82 11.4235 143.637 10.973 142.68 10.973C141.835 10.973 141.047 11.4797 141.047 12.437C141.047 13.2252 141.667 13.7883 142.736 14.1262C145.158 15.0271 149.099 15.7591 149.099 19.5316C149.099 22.7411 146.678 25.3875 142.849 25.3875C139.189 25.3875 136.711 22.7973 135.867 20.6577L139.302 18.7996C139.922 20.4888 141.104 21.7276 142.849 21.7276C144.2 21.7276 145.045 21.1081 145.045 19.8131C145.045 18.3492 142.793 18.0113 140.653 17.1104C138.738 16.3221 137.106 15.0833 137.106 12.3807C137.106 9.67795 139.302 7.25677 142.736 7.25677C145.045 7.25677 147.128 8.43921 148.198 10.1284Z" fill="#F5497D"/>
<path d="M57.9947 7.5946L54.8978 19.7004L51.9135 7.5946H47.8596L44.9316 19.7004L42.4542 12.6622L42.1726 13.5068L40.7649 18.0113L43.0171 25.2185H46.846L49.8866 13.8446L52.9271 25.2185H56.756L62.3866 7.5946H57.9947Z" fill="#F5497D"/>
<path d="M78.9408 7.5946L75.7877 19.7004L72.8034 7.5946H68.7493L65.8214 19.7004L63.3439 12.6622L63.0624 13.5068L61.6548 18.0113L63.907 25.2185H67.7359L70.7764 13.8446L73.8169 25.2185H77.6457L83.2764 7.5946H78.9408Z" fill="#F5497D"/>
<path d="M41.4976 7.5946L35.867 25.1622H32.0381L28.9976 13.7883L25.9571 25.2185H22.1282L16.4976 7.65091H20.8894L24.0426 19.7004L27.0268 7.65091H31.0245L34.0088 19.7004L37.162 7.65091L41.4976 7.5946Z" fill="#F5497D"/>
<path d="M154.73 19.5315C156.419 19.5315 157.657 20.7703 157.657 22.4594C157.657 24.1487 156.419 25.3874 154.73 25.3874C153.041 25.3874 151.802 24.1487 151.802 22.4594C151.802 20.7703 153.097 19.5315 154.73 19.5315Z" fill="#F5497D"/>
</svg>