<svg xmlns="http://www.w3.org/2000/svg" width="293" height="26" viewBox="0 0 293 26" fill="none">
<path fill-rule="evenodd" clip-rule="evenodd" d="M2.72874 12.0666V2.57175H11.5858C15.4517 2.57175 17.6271 4.36599 17.6271 7.02622V7.09612C17.6271 9.92231 15.6203 11.6232 12.6645 11.9914V13.7571C16.7584 13.9982 18.9753 15.6759 18.9753 18.4216V18.489C18.9753 21.5278 16.3488 23.4257 12.2055 23.4257H2.72874V13.7234V12.0666ZM15.348 12.6552C17.316 11.8592 19.4576 10.2023 19.4576 6.92242V6.85242C19.4576 3.22773 16.3151 0.914895 11.6195 0.914895H0.934509V25.0851H12.1381C17.3523 25.0851 20.8059 22.5286 20.8059 18.489V18.4216C20.8059 15.0717 18.2468 13.4148 15.348 12.6552ZM274.596 25.0851V0.914895H292.829V5.64415H279.88V10.5472H291.273V15.2791H279.88V20.3532H293V25.0851H274.596ZM257.434 25.5C249.908 25.5 244.73 20.2158 244.73 13.0674V12.9974C244.73 6.12643 250.081 0.5 257.403 0.5C261.752 0.5 264.375 1.67457 266.898 3.8137L263.548 7.85328C261.684 6.30013 260.025 5.40306 257.229 5.40306C253.361 5.40306 250.288 8.82036 250.288 12.93V12.9974C250.288 17.4182 253.325 20.6644 257.611 20.6644C259.543 20.6644 261.269 20.1821 262.615 19.2151V15.7614H257.264V11.1695H267.762V21.6652C265.275 23.7731 261.855 25.5 257.434 25.5ZM233.749 25.0851L222.042 9.72015V25.0851H216.797V0.914895H221.698L233.023 15.7951V0.914895H238.274V25.0851H233.749ZM201.673 14.968L198.458 7.12992L195.248 14.968H201.673ZM195.248 14.968L191.138 25.0851H185.717L196.075 0.741194H200.981L211.34 25.0851H205.78L201.673 14.968H195.248ZM174.946 25.0851V15.3803H165.141V25.0851H159.823V0.914895H165.141V10.4798H174.946V0.914895H180.264V25.0851H174.946ZM143.939 25.5C136.824 25.5 131.542 20.0084 131.542 13.0674V12.9974C131.542 6.12643 136.721 0.5 144.144 0.5C148.704 0.5 151.432 2.01936 153.675 4.22849L150.291 8.13068C148.427 6.43763 146.527 5.40306 144.11 5.40306C140.037 5.40306 137.099 8.78666 137.099 12.93V12.9974C137.099 17.1433 139.967 20.5969 144.11 20.5969C146.874 20.5969 148.565 19.4899 150.465 17.763L153.846 21.1829C151.362 23.8431 148.6 25.5 143.939 25.5ZM110.094 16.7985V25.0851H108.301V0.914895H110.094V16.7985ZM124.084 0.914895H126.536L115.97 11.5818L126.984 25.0851H124.638L113.691 11.6336L124.084 0.914895ZM92.0358 25.5C85.1286 25.5 80.0208 20.0084 80.0208 13.0674V12.9974C80.0208 6.16274 85.1286 0.5 92.1058 0.5C96.4229 0.5 99.0105 2.08685 101.497 4.36588L100.221 5.67785C98.1135 3.6399 95.6943 2.12316 92.0696 2.12316C86.2694 2.12316 81.8824 6.85241 81.8824 12.93V12.9974C81.8824 19.1113 86.3394 23.8768 92.1058 23.8768C95.5906 23.8768 97.9735 22.5287 100.426 20.1121L101.634 21.2867C99.0805 23.8069 96.3192 25.5 92.0358 25.5ZM71.3866 12.9974C71.3866 7.02611 67.0385 2.12316 61.0646 2.12316C55.0882 2.12316 50.8074 6.95611 50.8074 12.93V12.9974C50.8074 18.9739 55.1582 23.8768 61.132 23.8768C67.1058 23.8768 71.3866 19.0413 71.3866 13.0674V12.9974ZM61.0646 25.5C53.7425 25.5 48.9432 19.6636 48.9432 13.0674V12.9974C48.9432 6.40383 53.8125 0.5 61.132 0.5C68.4541 0.5 73.2509 6.33644 73.2509 12.93C73.2872 12.9637 73.2872 12.9637 73.2509 12.9974C73.2509 19.5936 68.3841 25.5 61.0646 25.5ZM28.2966 25.0851V0.914895H30.0934V23.4257H44.2839V25.0851H28.2966Z" fill="#F5497D"/>
</svg>