<svg xmlns="http://www.w3.org/2000/svg" width="141" height="26" viewBox="0 0 141 26" fill="none">
<path d="M28.9517 7.47954C23.8676 7.47954 19.8951 11.339 19.8951 16.5057C19.8951 21.6724 23.7673 25.4988 28.9517 25.4988C34.1362 25.4988 38.0757 21.6063 38.0757 16.4726C38.0757 11.372 34.2035 7.47954 28.9517 7.47954ZM28.9847 21.774C26.0895 21.774 23.968 19.5254 23.968 16.5057C23.968 13.4516 26.0552 11.2043 28.9504 11.2043C31.88 11.2043 34.0002 13.4859 34.0002 16.5057C34.0002 19.5254 31.88 21.774 28.9847 21.774ZM39.186 11.405H41.7115V25.1634H45.7513V7.81489H39.186V11.405ZM9.72817 11.2043C11.8497 11.2043 13.533 12.5128 14.172 14.4591H18.4481C17.6732 10.2985 14.2393 7.47954 9.76245 7.47954C4.67836 7.47954 0.705841 11.339 0.705841 16.5057C0.705841 21.6724 4.57799 25.4988 9.76245 25.4988C14.139 25.4988 17.6402 22.6797 18.4151 18.4849H14.1732C13.5673 20.4312 11.884 21.774 9.76245 21.774C6.83293 21.774 4.77998 19.5254 4.77998 16.5057C4.77872 13.4529 6.79865 11.2043 9.72817 11.2043ZM115.945 14.8288L112.983 14.393C111.569 14.1923 110.559 13.7222 110.559 12.6145C110.559 11.4063 111.872 10.8029 113.657 10.8029C115.609 10.8029 116.855 11.6413 117.125 13.0171H121.029C120.591 9.52742 117.898 7.48082 113.758 7.48082C109.482 7.48082 106.654 9.66206 106.654 12.7491C106.654 15.7015 108.506 17.414 112.242 17.9501L115.205 18.3858C116.653 18.5865 117.461 19.1582 117.461 20.2317C117.461 21.6076 116.047 22.178 114.094 22.178C111.704 22.178 110.357 21.2048 110.155 19.7286H106.182C106.554 23.1181 109.212 25.5 114.061 25.5C118.471 25.5 121.399 23.4865 121.399 20.0297C121.399 16.9426 119.278 15.3318 115.945 14.8288ZM43.7315 0.667688C42.2501 0.667688 41.1386 1.74117 41.1386 3.21736C41.1386 4.69356 42.2489 5.76704 43.7315 5.76704C45.2127 5.76704 46.3243 4.69356 46.3243 3.21736C46.323 1.74117 45.2127 0.667688 43.7315 0.667688ZM103.018 13.754C103.018 9.99618 100.729 7.47954 95.8811 7.47954C91.3023 7.47954 88.744 9.79547 88.2381 13.3526H92.2453C92.4473 11.9767 93.5241 10.8359 95.8135 10.8359C97.8678 10.8359 98.8777 11.7417 98.8777 12.8494C98.8777 14.2926 97.0255 14.6611 94.7367 14.896C91.6393 15.2314 87.8015 16.305 87.8015 20.3321C87.8015 23.4534 90.1247 25.4657 93.828 25.4657C96.7234 25.4657 98.5412 24.2576 99.4511 22.3444C99.5855 24.0556 100.865 25.1634 102.65 25.1634H105.006V21.5732H103.019V13.754H103.018ZM99.0442 18.1165C99.0442 20.4324 97.0243 22.1436 94.5661 22.1436C93.0503 22.1436 91.7714 21.5059 91.7714 20.1644C91.7714 18.4532 93.8257 17.9831 95.7105 17.7824C97.5284 17.6147 98.5389 17.212 99.0442 16.4396V18.1165ZM77.5985 7.47954C75.3423 7.47954 73.4575 8.41963 72.1105 9.99618V0.5H68.0708V25.1647H72.0436V22.883C73.39 24.5269 75.3097 25.5 77.5985 25.5C82.4468 25.5 86.117 21.6749 86.117 16.5069C86.117 11.339 82.3805 7.47954 77.5985 7.47954ZM76.9926 21.774C74.0978 21.774 71.9761 19.5254 71.9761 16.5057C71.9761 13.4859 74.1304 11.2043 77.0257 11.2043C79.9554 11.2043 82.0085 13.4529 82.0085 16.5057C82.0097 19.5266 79.8879 21.774 76.9926 21.774ZM58.4095 7.47954C55.7836 7.47954 54.0661 8.55299 53.0561 10.0635V7.81489H49.0493V25.1634H53.0891V15.7345C53.0891 13.0832 54.7724 11.2043 57.2637 11.2043C59.5873 11.2043 61.0344 12.8482 61.0344 15.2315V25.1647H65.0741V14.9304C65.0753 10.5666 62.8202 7.47954 58.4095 7.47954ZM140.656 15.9353C140.656 10.9693 137.02 7.47954 132.138 7.47954C126.953 7.47954 123.149 11.372 123.149 16.5057C123.149 21.9086 127.223 25.4988 132.205 25.4988C136.414 25.4988 139.713 23.0151 140.554 19.4923H136.346C135.74 21.0359 134.258 21.9086 132.271 21.9086C129.678 21.9086 127.726 20.2978 127.289 17.4788H140.655V15.9353H140.656ZM127.526 14.5937C128.167 12.1774 129.984 11.0036 132.072 11.0036C134.361 11.0036 136.112 12.3121 136.516 14.5937H127.526Z" fill="#F5497D"/>
</svg>