<svg width="50" height="50" viewBox="0 0 50 50" fill="none" xmlns="http://www.w3.org/2000/svg">
<path d="M35 26.5C35.5523 26.5 36 26.0523 36 25.5C36 24.9477 35.5523 24.5 35 24.5L35 26.5ZM14.2929 24.7929C13.9024 25.1834 13.9024 25.8166 14.2929 26.2071L20.6569 32.5711C21.0474 32.9616 21.6805 32.9616 22.0711 32.5711C22.4616 32.1805 22.4616 31.5474 22.0711 31.1569L16.4142 25.5L22.0711 19.8431C22.4616 19.4526 22.4616 18.8195 22.0711 18.4289C21.6805 18.0384 21.0474 18.0384 20.6569 18.4289L14.2929 24.7929ZM35 24.5L15 24.5L15 26.5L35 26.5L35 24.5Z" fill="#F5497D"/>
</svg>
