<svg width="50" height="50" viewBox="0 0 50 50" fill="none" xmlns="http://www.w3.org/2000/svg">
<path d="M15 24.5C14.4477 24.5 14 24.9477 14 25.5C14 26.0523 14.4477 26.5 15 26.5V24.5ZM35.7071 26.2071C36.0976 25.8166 36.0976 25.1834 35.7071 24.7929L29.3431 18.4289C28.9526 18.0384 28.3195 18.0384 27.9289 18.4289C27.5384 18.8195 27.5384 19.4526 27.9289 19.8431L33.5858 25.5L27.9289 31.1569C27.5384 31.5474 27.5384 32.1805 27.9289 32.5711C28.3195 32.9616 28.9526 32.9616 29.3431 32.5711L35.7071 26.2071ZM15 26.5H35V24.5H15V26.5Z" fill="#F5497D"/>
</svg>
