<svg width="144" height="26" viewBox="0 0 144 26" fill="none" xmlns="http://www.w3.org/2000/svg">
<path d="M12 4.34375L15.09 10.268L22 11.2239L17 15.8328L18.18 22.3438L12 19.268L5.82 22.3438L7 15.8328L2 11.2239L8.91 10.268L12 4.34375Z" fill="#FDC639"/>
<path d="M40 4.34375L43.09 10.268L50 11.2239L45 15.8328L46.18 22.3438L40 19.268L33.82 22.3438L35 15.8328L30 11.2239L36.91 10.268L40 4.34375Z" fill="#FDC639"/>
<path d="M68 4.34375L71.09 10.268L78 11.2239L73 15.8328L74.18 22.3438L68 19.268L61.82 22.3438L63 15.8328L58 11.2239L64.91 10.268L68 4.34375Z" fill="#FDC639"/>
<path d="M96 4.34375L99.09 10.268L106 11.2239L101 15.8328L102.18 22.3438L96 19.268L89.82 22.3438L91 15.8328L86 11.2239L92.91 10.268L96 4.34375Z" fill="#FDC639"/>
<path d="M124 4.34375L127.09 10.268L134 11.2239L129 15.8328L130.18 22.3438L124 19.268L117.82 22.3438L119 15.8328L114 11.2239L120.91 10.268L124 4.34375Z" fill="#FDC639"/>
</svg>
