<svg xmlns="http://www.w3.org/2000/svg" width="91" height="26" viewBox="0 0 91 26" fill="none">
<path d="M26.7218 6.60532V7.89815C25.9787 6.93518 24.6037 6.27546 23.0088 6.27546C19.2414 6.27546 16.4359 9.60301 16.4359 13.5093C16.4359 17.4155 19.2137 20.7431 23.0088 20.7431C24.6037 20.7431 25.9787 20.11 26.7218 19.0926V20.3854H31.4243V6.60532H26.7218ZM33.0482 0.5V20.3843H37.9162V13.0405C37.9162 11.61 38.6037 10.7581 39.7044 10.7581C40.8051 10.7581 41.3826 11.5012 41.3826 12.8762V20.3843H46.2507V11.7211C46.2507 8.36574 44.4359 6.27546 41.5204 6.27546C39.9533 6.27546 38.7426 6.88079 37.8896 7.9537V0.5H33.0493H33.0482ZM77.5748 13.5093C77.5748 17.6343 74.4116 20.7431 70.2044 20.7431C65.9972 20.7431 62.834 17.6354 62.834 13.5093C62.834 9.3831 65.9972 6.27546 70.2044 6.27546C74.4116 6.27546 77.5748 9.3831 77.5748 13.5093ZM62.0076 13.5093C62.0076 17.6343 58.8445 20.7431 54.6373 20.7431C50.4301 20.7431 47.2669 17.6354 47.2669 13.5093C47.2669 9.3831 50.4301 6.27546 54.6373 6.27546C58.8445 6.27546 62.0076 9.3831 62.0076 13.5093ZM0.704407 6.60532L6.58982 20.4942L4.47177 25.5H9.64191L17.481 6.60532H12.3375L9.14769 14.691L5.9845 6.60532H0.704407ZM23.9995 16.3414C22.3769 16.3414 21.1396 15.1042 21.1396 13.5081C21.1396 11.912 22.3769 10.6748 23.9995 10.6748C25.6222 10.6748 26.8329 11.912 26.8329 13.5081C26.8329 15.1042 25.5956 16.3414 23.9995 16.3414ZM57.3884 13.5081C57.3884 11.9676 56.2333 10.7303 54.6384 10.7303C53.0435 10.7303 51.8884 11.9676 51.8884 13.5081C51.8884 15.0486 53.0435 16.2859 54.6384 16.2859C56.2333 16.2859 57.3884 15.0486 57.3884 13.5081ZM72.9556 13.5081C72.9556 11.9676 71.8005 10.7303 70.2056 10.7303C68.6107 10.7303 67.4556 11.9676 67.4556 13.5081C67.4556 15.0486 68.6107 16.2859 70.2056 16.2859C71.8005 16.2859 72.9556 15.0486 72.9556 13.5081ZM78.1813 17.4688C78.1813 19.2014 79.5285 20.6319 81.3445 20.6319C83.1604 20.6319 84.6176 19.147 84.6176 17.3588C84.6176 15.5706 83.2704 14.1956 81.4544 14.1956C79.6384 14.1956 78.1813 15.7083 78.1813 17.4688ZM85.1107 0.5L79.9405 12.9861H85.716L90.8861 0.5H85.1107Z" fill="#F5497D"/>
</svg>